<mxfile host="app.diagrams.net" modified="2020-10-25T19:53:44.219Z" agent="5.0 (Windows NT 10.0; Win64; x64) AppleWebKit/537.36 (KHTML, like Gecko) Chrome/86.0.4240.111 Safari/537.36" etag="91uxBm4hoyI-Az4nmU5p" version="13.8.2" type="github">
  <diagram id="e4TwHjlWKdwYWM_9j43c" name="Page-1">
    <mxGraphModel dx="2249" dy="737" grid="1" gridSize="10" guides="1" tooltips="1" connect="1" arrows="1" fold="1" page="1" pageScale="1" pageWidth="827" pageHeight="1169" math="0" shadow="0">
      <root>
        <mxCell id="0" />
        <mxCell id="1" parent="0" />
        <mxCell id="fbmFSeeESU6-tUPH32Np-1" value="" style="strokeWidth=1;shadow=0;align=center;html=1;shape=mxgraph.mockup.containers.browserWindow;rSize=0;strokeColor2=#008cff;strokeColor3=#c4c4c4;mainText=,;recursiveResize=0;" vertex="1" parent="1">
          <mxGeometry x="-10" y="70" width="1080" height="850" as="geometry" />
        </mxCell>
        <mxCell id="fbmFSeeESU6-tUPH32Np-2" value="Page 1" style="strokeWidth=1;shadow=0;dashed=0;align=center;html=1;shape=mxgraph.mockup.containers.anchor;fontSize=17;fontColor=#666666;align=left;" vertex="1" parent="fbmFSeeESU6-tUPH32Np-1">
          <mxGeometry x="60" y="12" width="110" height="26" as="geometry" />
        </mxCell>
        <mxCell id="fbmFSeeESU6-tUPH32Np-3" value="https://www.draw.io" style="strokeWidth=1;shadow=0;dashed=0;align=center;html=1;shape=mxgraph.mockup.containers.anchor;rSize=0;fontSize=17;fontColor=#666666;align=left;" vertex="1" parent="fbmFSeeESU6-tUPH32Np-1">
          <mxGeometry x="130" y="60" width="250" height="26" as="geometry" />
        </mxCell>
        <mxCell id="fbmFSeeESU6-tUPH32Np-4" value="" style="rounded=0;whiteSpace=wrap;html=1;fillColor=#000000;" vertex="1" parent="fbmFSeeESU6-tUPH32Np-1">
          <mxGeometry y="110" width="1070" height="90" as="geometry" />
        </mxCell>
        <mxCell id="fbmFSeeESU6-tUPH32Np-5" value="" style="shape=mxgraph.signs.food.bar;html=1;pointerEvents=1;strokeColor=none;verticalLabelPosition=bottom;verticalAlign=top;align=center;fontColor=#000000;fillColor=#FFFFFF;" vertex="1" parent="fbmFSeeESU6-tUPH32Np-1">
          <mxGeometry x="40" y="125.5" width="78" height="59" as="geometry" />
        </mxCell>
        <mxCell id="fbmFSeeESU6-tUPH32Np-6" value="&lt;font style=&quot;font-size: 30px&quot;&gt;&lt;b&gt;Drink&lt;br&gt;&lt;/b&gt;&lt;/font&gt;&lt;blockquote style=&quot;margin: 0 0 0 40px ; border: none ; padding: 0px&quot;&gt;&lt;font style=&quot;font-size: 30px&quot;&gt;&lt;b&gt;Store&lt;/b&gt;&lt;/font&gt;&lt;/blockquote&gt;" style="text;html=1;strokeColor=none;fillColor=none;align=center;verticalAlign=middle;whiteSpace=wrap;rounded=0;fontColor=#FFFFFF;" vertex="1" parent="fbmFSeeESU6-tUPH32Np-1">
          <mxGeometry x="130" y="130" width="70" height="50" as="geometry" />
        </mxCell>
        <mxCell id="fbmFSeeESU6-tUPH32Np-7" value="&lt;u&gt;Carrito de compras&lt;/u&gt;" style="text;strokeColor=none;fillColor=none;html=1;fontSize=24;fontStyle=1;verticalAlign=middle;align=center;" vertex="1" parent="fbmFSeeESU6-tUPH32Np-1">
          <mxGeometry x="-40" y="260" width="350" height="40" as="geometry" />
        </mxCell>
        <mxCell id="fbmFSeeESU6-tUPH32Np-8" value="" style="verticalLabelPosition=bottom;shadow=0;dashed=0;align=center;html=1;verticalAlign=top;strokeWidth=1;shape=mxgraph.mockup.misc.shoppingCart;fillColor=#FFFFFF;fontColor=#FFFFFF;strokeColor=#FFFFFF;" vertex="1" parent="fbmFSeeESU6-tUPH32Np-1">
          <mxGeometry x="970" y="125.5" width="47" height="50" as="geometry" />
        </mxCell>
        <mxCell id="fbmFSeeESU6-tUPH32Np-9" value="&lt;font style=&quot;font-size: 18px&quot; color=&quot;#000000&quot;&gt;Producto&lt;/font&gt;" style="text;html=1;strokeColor=none;fillColor=none;align=center;verticalAlign=middle;whiteSpace=wrap;rounded=0;fontSize=18;fontColor=#FFE599;" vertex="1" parent="fbmFSeeESU6-tUPH32Np-1">
          <mxGeometry y="320" width="140" height="20" as="geometry" />
        </mxCell>
        <mxCell id="fbmFSeeESU6-tUPH32Np-10" value="&lt;font color=&quot;#000000&quot; style=&quot;font-size: 18px;&quot;&gt;Cantidad&lt;/font&gt;" style="text;html=1;strokeColor=none;fillColor=none;align=center;verticalAlign=middle;whiteSpace=wrap;rounded=0;fontColor=#FFFFFF;fontSize=18;" vertex="1" parent="fbmFSeeESU6-tUPH32Np-1">
          <mxGeometry x="210" y="320" width="70" height="20" as="geometry" />
        </mxCell>
        <mxCell id="fbmFSeeESU6-tUPH32Np-12" value="&lt;font color=&quot;#000000&quot; style=&quot;font-size: 18px;&quot;&gt;Precio&lt;/font&gt;" style="text;html=1;strokeColor=none;fillColor=none;align=center;verticalAlign=middle;whiteSpace=wrap;rounded=0;fontColor=#FFFFFF;fontSize=18;" vertex="1" parent="fbmFSeeESU6-tUPH32Np-1">
          <mxGeometry x="410" y="320" width="80" height="20" as="geometry" />
        </mxCell>
        <mxCell id="fbmFSeeESU6-tUPH32Np-14" value="&lt;font color=&quot;#000000&quot; style=&quot;font-size: 18px;&quot;&gt;Subtotal&lt;/font&gt;" style="text;html=1;strokeColor=none;fillColor=none;align=center;verticalAlign=middle;whiteSpace=wrap;rounded=0;fontColor=#FFFFFF;fontSize=18;" vertex="1" parent="fbmFSeeESU6-tUPH32Np-1">
          <mxGeometry x="600" y="320" width="60" height="20" as="geometry" />
        </mxCell>
        <mxCell id="fbmFSeeESU6-tUPH32Np-15" value="" style="verticalLabelPosition=bottom;shadow=0;dashed=0;align=center;html=1;verticalAlign=top;strokeWidth=1;shape=mxgraph.mockup.graphics.simpleIcon;strokeColor=#999999;fillColor=#FFFFFF;fontSize=18;fontColor=#FFE599;" vertex="1" parent="fbmFSeeESU6-tUPH32Np-1">
          <mxGeometry x="20" y="370" width="100" height="100" as="geometry" />
        </mxCell>
        <mxCell id="fbmFSeeESU6-tUPH32Np-16" value="&lt;font color=&quot;#000000&quot; style=&quot;font-size: 13px;&quot;&gt;&amp;nbsp;Nombre del producto&lt;/font&gt;" style="text;html=1;strokeColor=none;fillColor=none;align=center;verticalAlign=middle;whiteSpace=wrap;rounded=0;fontSize=13;fontColor=#FFE599;" vertex="1" parent="fbmFSeeESU6-tUPH32Np-1">
          <mxGeometry y="490" width="140" height="20" as="geometry" />
        </mxCell>
        <mxCell id="fbmFSeeESU6-tUPH32Np-17" value="Imagen del producto" style="text;html=1;strokeColor=none;fillColor=none;align=center;verticalAlign=middle;whiteSpace=wrap;rounded=0;fontSize=13;" vertex="1" parent="fbmFSeeESU6-tUPH32Np-1">
          <mxGeometry x="50" y="410" width="40" height="20" as="geometry" />
        </mxCell>
        <mxCell id="fbmFSeeESU6-tUPH32Np-21" value="" style="rounded=0;whiteSpace=wrap;html=1;strokeColor=#000000;fillColor=#FFFFFF;fontSize=13;fontColor=#000000;" vertex="1" parent="fbmFSeeESU6-tUPH32Np-1">
          <mxGeometry x="190" y="405" width="110" height="30" as="geometry" />
        </mxCell>
        <mxCell id="fbmFSeeESU6-tUPH32Np-24" value="" style="line;strokeWidth=1;direction=south;html=1;fillColor=#FFFFFF;fontSize=13;fontColor=#000000;" vertex="1" parent="fbmFSeeESU6-tUPH32Np-1">
          <mxGeometry x="270" y="405" width="10" height="30" as="geometry" />
        </mxCell>
        <mxCell id="fbmFSeeESU6-tUPH32Np-25" value="" style="line;strokeWidth=1;direction=south;html=1;fillColor=#FFFFFF;fontSize=13;fontColor=#000000;" vertex="1" parent="fbmFSeeESU6-tUPH32Np-1">
          <mxGeometry x="210" y="405" width="10" height="30" as="geometry" />
        </mxCell>
        <mxCell id="fbmFSeeESU6-tUPH32Np-26" value="&lt;font style=&quot;font-size: 14px&quot;&gt;&lt;b&gt;&amp;nbsp;+&amp;nbsp; &amp;nbsp; &amp;nbsp; &amp;nbsp; &amp;nbsp;1&amp;nbsp; &amp;nbsp; &amp;nbsp; &amp;nbsp; &amp;nbsp; -&lt;/b&gt;&lt;/font&gt;" style="text;html=1;strokeColor=none;fillColor=none;align=left;verticalAlign=middle;whiteSpace=wrap;rounded=0;fontSize=13;fontColor=#000000;" vertex="1" parent="fbmFSeeESU6-tUPH32Np-1">
          <mxGeometry x="190" y="410" width="110" height="20" as="geometry" />
        </mxCell>
        <mxCell id="fbmFSeeESU6-tUPH32Np-27" value="$ 2500" style="text;html=1;strokeColor=none;fillColor=none;align=center;verticalAlign=middle;whiteSpace=wrap;rounded=0;fontSize=13;fontColor=#000000;" vertex="1" parent="fbmFSeeESU6-tUPH32Np-1">
          <mxGeometry x="430" y="405" width="50" height="20" as="geometry" />
        </mxCell>
        <mxCell id="fbmFSeeESU6-tUPH32Np-28" value="&lt;b&gt;$ 2500&lt;/b&gt;" style="text;html=1;strokeColor=none;fillColor=none;align=center;verticalAlign=middle;whiteSpace=wrap;rounded=0;fontSize=13;fontColor=#000000;" vertex="1" parent="fbmFSeeESU6-tUPH32Np-1">
          <mxGeometry x="610" y="405" width="50" height="20" as="geometry" />
        </mxCell>
        <mxCell id="fbmFSeeESU6-tUPH32Np-29" value="" style="line;strokeWidth=1;html=1;fillColor=#FFFFFF;fontSize=13;fontColor=#000000;" vertex="1" parent="fbmFSeeESU6-tUPH32Np-1">
          <mxGeometry x="10" y="540" width="750" height="10" as="geometry" />
        </mxCell>
        <mxCell id="fbmFSeeESU6-tUPH32Np-30" value="" style="verticalLabelPosition=bottom;shadow=0;dashed=0;verticalAlign=top;strokeWidth=2;html=1;shape=mxgraph.mockup.misc.trashcanIcon;fillColor=#FFFFFF;fontSize=13;fontColor=#000000;strokeColor=#FF3333;" vertex="1" parent="fbmFSeeESU6-tUPH32Np-1">
          <mxGeometry x="700" y="400" width="30" height="25" as="geometry" />
        </mxCell>
        <mxCell id="fbmFSeeESU6-tUPH32Np-33" value="" style="verticalLabelPosition=bottom;shadow=0;dashed=0;align=center;html=1;verticalAlign=top;strokeWidth=1;shape=mxgraph.mockup.graphics.simpleIcon;strokeColor=#999999;fillColor=#FFFFFF;fontSize=18;fontColor=#FFE599;" vertex="1" parent="fbmFSeeESU6-tUPH32Np-1">
          <mxGeometry x="20" y="580" width="100" height="100" as="geometry" />
        </mxCell>
        <mxCell id="fbmFSeeESU6-tUPH32Np-34" value="&lt;font color=&quot;#000000&quot; style=&quot;font-size: 13px;&quot;&gt;&amp;nbsp;Nombre del producto&lt;/font&gt;" style="text;html=1;strokeColor=none;fillColor=none;align=center;verticalAlign=middle;whiteSpace=wrap;rounded=0;fontSize=13;fontColor=#FFE599;" vertex="1" parent="fbmFSeeESU6-tUPH32Np-1">
          <mxGeometry y="700" width="140" height="20" as="geometry" />
        </mxCell>
        <mxCell id="fbmFSeeESU6-tUPH32Np-37" value="" style="rounded=0;whiteSpace=wrap;html=1;strokeColor=#000000;fillColor=#FFFFFF;fontSize=13;fontColor=#000000;" vertex="1" parent="fbmFSeeESU6-tUPH32Np-1">
          <mxGeometry x="190" y="615" width="110" height="30" as="geometry" />
        </mxCell>
        <mxCell id="fbmFSeeESU6-tUPH32Np-40" value="$ 1350" style="text;html=1;strokeColor=none;fillColor=none;align=center;verticalAlign=middle;whiteSpace=wrap;rounded=0;fontSize=13;fontColor=#000000;" vertex="1" parent="fbmFSeeESU6-tUPH32Np-1">
          <mxGeometry x="430" y="620" width="50" height="20" as="geometry" />
        </mxCell>
        <mxCell id="fbmFSeeESU6-tUPH32Np-42" value="&lt;b&gt;$ 2700&lt;/b&gt;" style="text;html=1;strokeColor=none;fillColor=none;align=center;verticalAlign=middle;whiteSpace=wrap;rounded=0;fontSize=13;fontColor=#000000;" vertex="1" parent="fbmFSeeESU6-tUPH32Np-1">
          <mxGeometry x="610" y="620" width="50" height="20" as="geometry" />
        </mxCell>
        <mxCell id="fbmFSeeESU6-tUPH32Np-43" value="" style="verticalLabelPosition=bottom;shadow=0;dashed=0;verticalAlign=top;strokeWidth=2;html=1;shape=mxgraph.mockup.misc.trashcanIcon;fillColor=#FFFFFF;fontSize=13;fontColor=#000000;strokeColor=#FF3333;" vertex="1" parent="fbmFSeeESU6-tUPH32Np-1">
          <mxGeometry x="700" y="615" width="30" height="25" as="geometry" />
        </mxCell>
        <mxCell id="fbmFSeeESU6-tUPH32Np-44" value="Imagen del producto" style="text;html=1;strokeColor=none;fillColor=none;align=center;verticalAlign=middle;whiteSpace=wrap;rounded=0;fontSize=13;" vertex="1" parent="fbmFSeeESU6-tUPH32Np-1">
          <mxGeometry x="50" y="620" width="40" height="20" as="geometry" />
        </mxCell>
        <mxCell id="fbmFSeeESU6-tUPH32Np-45" value="" style="verticalLabelPosition=bottom;shadow=0;dashed=0;align=center;html=1;verticalAlign=top;strokeWidth=1;shape=mxgraph.mockup.markup.line;strokeColor=#999999;direction=north;fillColor=#FFFFFF;fontSize=13;fontColor=#000000;" vertex="1" parent="fbmFSeeESU6-tUPH32Np-1">
          <mxGeometry x="265" y="615" width="20" height="30" as="geometry" />
        </mxCell>
        <mxCell id="fbmFSeeESU6-tUPH32Np-46" value="" style="verticalLabelPosition=bottom;shadow=0;dashed=0;align=center;html=1;verticalAlign=top;strokeWidth=1;shape=mxgraph.mockup.markup.line;strokeColor=#999999;direction=north;fillColor=#FFFFFF;fontSize=13;fontColor=#000000;" vertex="1" parent="fbmFSeeESU6-tUPH32Np-1">
          <mxGeometry x="205" y="615" width="20" height="30" as="geometry" />
        </mxCell>
        <mxCell id="fbmFSeeESU6-tUPH32Np-47" value="&lt;b&gt;&amp;nbsp;+&amp;nbsp; &amp;nbsp; &amp;nbsp; &amp;nbsp; &amp;nbsp; 2&amp;nbsp; &amp;nbsp; &amp;nbsp; &amp;nbsp; &amp;nbsp; -&lt;/b&gt;" style="text;html=1;strokeColor=none;fillColor=none;align=left;verticalAlign=middle;whiteSpace=wrap;rounded=0;fontSize=13;fontColor=#000000;" vertex="1" parent="fbmFSeeESU6-tUPH32Np-1">
          <mxGeometry x="190" y="620" width="110" height="20" as="geometry" />
        </mxCell>
        <mxCell id="fbmFSeeESU6-tUPH32Np-49" value="" style="rounded=0;whiteSpace=wrap;html=1;strokeColor=#000000;strokeWidth=1;fillColor=#FFFFFF;fontSize=13;fontColor=#000000;" vertex="1" parent="fbmFSeeESU6-tUPH32Np-1">
          <mxGeometry x="820" y="340" width="230" height="330" as="geometry" />
        </mxCell>
        <mxCell id="fbmFSeeESU6-tUPH32Np-51" value="Resumen de cfompra" style="text;html=1;strokeColor=none;fillColor=none;align=center;verticalAlign=middle;whiteSpace=wrap;rounded=0;fontSize=15;fontColor=#000000;fontStyle=1" vertex="1" parent="fbmFSeeESU6-tUPH32Np-1">
          <mxGeometry x="848.5" y="350" width="173" height="20" as="geometry" />
        </mxCell>
        <mxCell id="fbmFSeeESU6-tUPH32Np-11" value="Text" style="text;html=1;strokeColor=none;fillColor=none;align=center;verticalAlign=middle;whiteSpace=wrap;rounded=0;fontColor=#FFFFFF;" vertex="1" parent="1">
          <mxGeometry x="390" y="440" width="40" height="20" as="geometry" />
        </mxCell>
        <mxCell id="fbmFSeeESU6-tUPH32Np-50" value="Text" style="text;html=1;strokeColor=none;fillColor=none;align=center;verticalAlign=middle;whiteSpace=wrap;rounded=0;fontSize=13;fontColor=#000000;" vertex="1" parent="1">
          <mxGeometry x="390" y="430" width="40" height="20" as="geometry" />
        </mxCell>
      </root>
    </mxGraphModel>
  </diagram>
</mxfile>
